# xmcd
#
# Track frame offsets:
#	150
#	25805
#	43244
#	70389
#	99430
#	119657
#	138646
#	155052
#	176228
#	201645
#
# Disc length: 2983 seconds
#
# Revision: 0
# Processed by: cddbd v1.5.2PL0 Copyright (c) Steve Scherf et al.
# Submitted via: EZCDAudioConverter 8.0.2.1
#
DISCID=a00ba50a
DTITLE=Duy Khánh - The Bets Of. Xin Anh Giữ Trọn Tình Quê [CD2)
DYEAR=2000
DGENRE=Miscellaneous
TTITLE0=ANh về một chiều xưa
TTITLE1=Kẻ ở miền xa
TTITLE2=Ngày trở về
TTITLE3=Đêm trao kỷ niệm
TTITLE4=CHiều hành quân
TTITLE5=Một người đi xa
TTITLE6=24 giờ phép
TTITLE7=Đêm bơ vơ
TTITLE8=Một bàn tay
TTITLE9=Trương xưa tình cũ
EXTD=
EXTT0=
EXTT1=
EXTT2=
EXTT3=
EXTT4=
EXTT5=
EXTT6=
EXTT7=
EXTT8=
EXTT9=
PLAYORDER=
